<svg xmlns="http://www.w3.org/2000/svg" viewBox="0 0 24 24" fill="currentColor">
  <path d="M11 9.5C11 8.94772 11.4477 8.5 12 8.5C12.5523 8.5 13 8.94772 13 9.5V17H11V9.5Z" />
  <path d="M15 12C15 11.4477 15.4477 11 16 11C16.5523 11 17 11.4477 17 12V17H15V12Z" />
  <path d="M7 14C7 13.4477 7.44771 13 8 13C8.55228 13 9 13.4477 9 14V17H7V14Z" />
  <path fill-rule="evenodd" clip-rule="evenodd" d="M4.5 3C3.67157 3 3 3.67157 3 4.5V19.5C3 20.3284 3.67157 21 4.5 21H19.5C20.3284 21 21 20.3284 21 19.5V4.5C21 3.67157 20.3284 3 19.5 3H4.5ZM5 19V5H19V19H5Z" />
</svg>